<svg width="50" height="50" viewBox="0 0 50 50" fill="none" xmlns="http://www.w3.org/2000/svg">
<path d="M25.1649 10.9375C24.2941 10.9375 23.5817 10.2344 23.5817 9.375V7.8125C23.5817 3.49609 27.1241 0 31.4977 0H33.0809C33.9516 0 34.6641 0.703125 34.6641 1.5625V3.125C34.6641 7.44141 31.1217 10.9375 26.7481 10.9375H25.1649ZM3 28.125C3 20.6738 6.53252 12.5 14.0824 12.5C16.7838 12.5 19.9898 13.5059 22.2656 14.3848C24.1259 15.0977 26.2137 15.0977 28.074 14.3848C30.34 13.5156 33.5558 12.5 36.2572 12.5C43.8071 12.5 47.3396 20.6738 47.3396 28.125C47.3396 40.625 39.4236 50 31.5076 50C29.8749 50 27.7376 49.3555 26.4116 48.8965C25.6101 48.623 24.7394 48.623 23.9379 48.8965C22.6119 49.3555 20.4746 50 18.8419 50C10.916 50 3 40.625 3 28.125Z" fill="#D9243F"/>
</svg>
