<svg width="47" height="53" viewBox="0 0 47 53" fill="none" xmlns="http://www.w3.org/2000/svg">
<path d="M23.4948 11.5938C22.5717 11.5938 21.8166 10.8484 21.8166 9.9375V8.28125C21.8166 3.70586 25.5715 0 30.2075 0H31.8857C32.8087 0 33.5639 0.745312 33.5639 1.65625V3.3125C33.5639 7.88789 29.809 11.5938 25.173 11.5938H23.4948ZM0 29.8125C0 21.9143 3.74448 13.25 11.7474 13.25C14.6108 13.25 18.0091 14.3162 20.4216 15.2479C22.3934 16.0035 24.6066 16.0035 26.5784 15.2479C28.9804 14.3266 32.3892 13.25 35.2526 13.25C43.2555 13.25 47 21.9143 47 29.8125C47 43.0625 38.609 53 30.218 53C28.4874 53 26.2218 52.3168 24.8163 51.8303C23.9667 51.5404 23.0437 51.5404 22.1942 51.8303C20.7887 52.3168 18.5231 53 16.7925 53C8.39098 53 0 43.0625 0 29.8125Z" fill="#FFB900"/>
</svg>
