<svg width="50" height="50" viewBox="0 0 50 50" fill="none" xmlns="http://www.w3.org/2000/svg">
<path d="M42.4872 12.9865C42.9983 13.4739 43.4709 13.9837 43.9272 14.5016L47.0417 8.66029C34.8805 -2.88676 15.1601 -2.88676 3 8.66029L6.11438 14.5016C6.57081 13.9837 7.04332 13.4739 7.55452 12.9865C17.2027 3.82735 32.839 3.82735 42.4872 12.9865Z" fill="#E79D56"/>
<path d="M43.9272 14.5017C43.4704 13.9771 42.9899 13.4715 42.487 12.9865C32.8389 3.82741 17.2026 3.82741 7.55444 12.9865C7.04324 13.4739 6.57071 13.9837 6.11322 14.5017L25.0208 49.9605L43.9272 14.5017Z" fill="#FCEA2B"/>
<path d="M19.6513 22.4313C22.6169 22.4313 25.0208 20.1488 25.0208 17.3331C25.0208 14.5176 22.6169 12.2351 19.6513 12.2351C16.6856 12.2351 14.2816 14.5176 14.2816 17.3331C14.2816 20.1488 16.6856 22.4313 19.6513 22.4313Z" fill="#CD541D"/>
<path d="M33.6122 20.3919C35.3916 20.3919 36.834 19.0225 36.834 17.3331C36.834 15.6437 35.3916 14.2743 33.6122 14.2743C31.8329 14.2743 30.3905 15.6437 30.3905 17.3331C30.3905 19.0225 31.8329 20.3919 33.6122 20.3919Z" fill="#CD541D"/>
<path d="M26.0947 32.6272C27.874 32.6272 29.3165 31.2578 29.3165 29.5684C29.3165 27.879 27.874 26.5096 26.0947 26.5096C24.3154 26.5096 22.8729 27.879 22.8729 29.5684C22.8729 31.2578 24.3154 32.6272 26.0947 32.6272Z" fill="#CD541D"/>
</svg>
