<svg width="135" height="93" viewBox="0 0 135 93" fill="none" xmlns="http://www.w3.org/2000/svg">
<path fill-rule="evenodd" clip-rule="evenodd" d="M1.48634 65.6009C0.677698 66.4096 0.70932 67.7319 1.57299 68.4815C19.1208 83.7113 42.0275 92.9289 67.087 92.9289C92.1466 92.929 115.053 83.7113 132.601 68.4815C133.465 67.7319 133.497 66.4096 132.688 65.6009L68.5013 1.41417C67.7202 0.63312 66.4539 0.633117 65.6728 1.41417L1.48634 65.6009Z" fill="#272727"/>
<path d="M75.6768 51.8734C76.2913 50.5391 75.3057 49.0198 73.8368 49.0369L59.0743 49.2092C57.6279 49.2261 56.6772 50.7256 57.2789 52.041L64.5958 68.0372C65.3072 69.5924 67.5158 69.5953 68.2312 68.0418L75.6768 51.8734Z" fill="#9E9E9E"/>
</svg>
