<svg width="93" height="135" viewBox="0 0 93 135" fill="none" xmlns="http://www.w3.org/2000/svg">
<path fill-rule="evenodd" clip-rule="evenodd" d="M27.328 1.48633C26.5194 0.677695 25.197 0.709317 24.4474 1.57299C9.21766 19.1208 -4.02787e-06 42.0275 -2.93248e-06 67.087C-1.83709e-06 92.1466 9.21766 115.053 24.4474 132.601C25.197 133.465 26.5194 133.497 27.328 132.688L91.5148 68.5013C92.2958 67.7202 92.2958 66.4539 91.5148 65.6728L27.328 1.48633Z" fill="#272727"/>
<path d="M42.1266 75.6768C43.4609 76.2913 44.9802 75.3057 44.9631 73.8368L44.7908 59.0743C44.7739 57.6279 43.2744 56.6772 41.959 57.2789L25.9628 64.5958C24.4076 65.3072 24.4047 67.5158 25.9582 68.2312L42.1266 75.6768Z" fill="#9E9E9E"/>
</svg>
