<svg width="135" height="93" viewBox="0 0 135 93" fill="none" xmlns="http://www.w3.org/2000/svg">
<path fill-rule="evenodd" clip-rule="evenodd" d="M132.688 27.328C133.497 26.5194 133.465 25.197 132.601 24.4474C115.054 9.21766 92.1468 0 67.0873 0C42.0278 0 19.1211 9.21766 1.57299 24.4474C0.709307 25.197 0.677677 26.5194 1.48632 27.328L65.6731 91.5148C66.4541 92.2958 67.7204 92.2958 68.5015 91.5148L132.688 27.328Z" fill="#272727"/>
<path d="M75.6768 41.1266C76.2913 42.4609 75.3057 43.9802 73.8368 43.9631L59.0743 43.7908C57.6279 43.7739 56.6772 42.2744 57.2789 40.959L64.5958 24.9628C65.3072 23.4076 67.5158 23.4047 68.2312 24.9582L75.6768 41.1266Z" fill="#9E9E9E"/>
</svg>
