<svg width="93" height="135" viewBox="0 0 93 135" fill="none" xmlns="http://www.w3.org/2000/svg">
<path fill-rule="evenodd" clip-rule="evenodd" d="M65.6009 132.688C66.4096 133.497 67.7319 133.465 68.4815 132.601C83.7113 115.054 92.929 92.1468 92.929 67.0873C92.929 42.0278 83.7113 19.1211 68.4815 1.57299C67.7319 0.709307 66.4096 0.677678 65.6009 1.48632L1.41418 65.6731C0.633126 66.4541 0.633124 67.7204 1.41418 68.5015L65.6009 132.688Z" fill="#272727"/>
<path d="M51.8734 75.6768C50.5391 76.2913 49.0198 75.3057 49.0369 73.8368L49.2092 59.0743C49.2261 57.6279 50.7256 56.6772 52.041 57.2789L68.0372 64.5958C69.5924 65.3072 69.5953 67.5158 68.0418 68.2312L51.8734 75.6768Z" fill="#9E9E9E"/>
</svg>
