<svg width="70" height="70" viewBox="0 0 70 70" fill="none" xmlns="http://www.w3.org/2000/svg">
<circle cx="35" cy="35" r="35" fill="#626262"/>
<circle cx="35" cy="35" r="28" fill="#9E9E9E"/>
<path d="M27.9687 22C26.3298 22 25 23.3997 25 25.125V43.875C25 45.6003 26.3298 47 27.9687 47H29.9479C31.5869 47 32.9167 45.6003 32.9167 43.875V25.125C32.9167 23.3997 31.5869 22 29.9479 22H27.9687ZM39.8437 22C38.2048 22 36.875 23.3997 36.875 25.125V43.875C36.875 45.6003 38.2048 47 39.8437 47H41.8229C43.4619 47 44.7917 45.6003 44.7917 43.875V25.125C44.7917 23.3997 43.4619 22 41.8229 22H39.8437Z" fill="#272727"/>
</svg>
