<svg width="60" height="60" viewBox="0 0 60 60" fill="none" xmlns="http://www.w3.org/2000/svg">
<path d="M8.26698 21.3297C10.3943 17.8657 13.724 15.3571 18.3026 15.3571C21.4404 15.3571 25.0563 16.5088 27.5192 17.4599C29.2238 18.1127 31.1414 18.1125 32.8459 17.4594L8.26698 21.3297ZM8.26698 21.3297C6.16089 24.7593 5.17859 29.1854 5.17859 33.3482L8.26698 21.3297ZM31.1063 56.7855C32.5228 57.2757 34.9911 58.0357 36.9724 58.0357C41.7157 58.0357 46.2898 55.2404 49.6297 50.8456C52.9835 46.4322 55.1853 40.3042 55.1853 33.3482C55.1853 29.1854 54.203 24.7593 52.0969 21.3297C49.9696 17.8657 46.6399 15.3571 42.0613 15.3571C38.9222 15.3571 35.2939 16.5204 32.8463 17.4593L29.2682 56.7855M31.1063 56.7855C31.1054 56.7852 31.1045 56.7849 31.1036 56.7846L31.5125 55.6033L31.1089 56.7864C31.108 56.7861 31.1072 56.7858 31.1063 56.7855ZM31.1063 56.7855C30.5108 56.583 29.8637 56.583 29.2682 56.7855M29.2682 56.7855C29.2691 56.7852 29.27 56.7849 29.2709 56.7846L28.8621 55.6035L29.2656 56.7864C29.2665 56.7861 29.2674 56.7858 29.2682 56.7855ZM27.2304 13.2589C27.2304 14.8855 28.5689 16.183 30.1767 16.183H31.8729C37.2337 16.183 41.6044 11.893 41.6044 6.56245V4.88834C41.6044 3.26176 40.2659 1.96423 38.6581 1.96423H36.9618C31.601 1.96423 27.2304 6.25423 27.2304 11.5848V13.2589Z" fill="#D9243F" stroke="white" stroke-width="2.5"/>
<path d="M30.1767 14.933C29.2437 14.933 28.4804 14.1796 28.4804 13.2589V11.5848C28.4804 6.96005 32.2758 3.21423 36.9618 3.21423H38.6581C39.5911 3.21423 40.3544 3.96758 40.3544 4.88834V6.56245C40.3544 11.1872 36.5589 14.933 31.8729 14.933H30.1767ZM6.42859 33.3482C6.42859 25.3648 10.2134 16.6071 18.3026 16.6071C21.1969 16.6071 24.6319 17.6848 27.0703 18.6265C29.0635 19.3903 31.3004 19.3903 33.2936 18.6265C35.7214 17.6953 39.167 16.6071 42.0613 16.6071C50.1505 16.6071 53.9353 25.3648 53.9353 33.3482C53.9353 46.741 45.4539 56.7857 36.9724 56.7857C35.2231 56.7857 32.9331 56.0951 31.5125 55.6033C30.6537 55.3104 29.7208 55.3104 28.862 55.6033C27.4414 56.0951 25.1514 56.7857 23.4021 56.7857C14.91 56.7857 6.42859 46.741 6.42859 33.3482Z" fill="#D9243F"/>
</svg>
