<svg width="115" height="75" viewBox="0 0 115 75" fill="none" xmlns="http://www.w3.org/2000/svg">
<rect x="40" width="35" height="35" rx="5" fill="#545454"/>
<path d="M51.489 22.2316L57.5782 12.6629C57.7746 12.3541 58.2254 12.3541 58.4218 12.6629L64.511 22.2316C64.7228 22.5644 64.4837 23 64.0892 23H51.9108C51.5163 23 51.2772 22.5644 51.489 22.2316Z" fill="#D9D9D9"/>
<rect x="75" y="75" width="35" height="35" rx="5" transform="rotate(-180 75 75)" fill="#545454"/>
<path d="M63.511 52.7684L57.4218 62.3371C57.2254 62.6459 56.7746 62.6459 56.5782 62.3371L50.489 52.7684C50.2772 52.4356 50.5163 52 50.9108 52L63.0892 52C63.4837 52 63.7228 52.4356 63.511 52.7684Z" fill="#D9D9D9"/>
<rect x="115" y="40" width="35" height="35" rx="5" transform="rotate(90 115 40)" fill="#545454"/>
<path d="M92.7684 51.489L102.337 57.5782C102.646 57.7746 102.646 58.2254 102.337 58.4218L92.7684 64.511C92.4356 64.7228 92 64.4837 92 64.0892L92 51.9108C92 51.5163 92.4356 51.2772 92.7684 51.489Z" fill="#D9D9D9"/>
<rect y="75" width="35" height="35" rx="5" transform="rotate(-90 0 75)" fill="#545454"/>
<path d="M22.2316 63.511L12.6629 57.4218C12.3541 57.2254 12.3541 56.7746 12.6629 56.5782L22.2316 50.489C22.5644 50.2772 23 50.5163 23 50.9108L23 63.0892C23 63.4837 22.5644 63.7228 22.2316 63.511Z" fill="#D9D9D9"/>
</svg>
