<svg width="50" height="50" viewBox="0 0 50 50" fill="none" xmlns="http://www.w3.org/2000/svg">
<path d="M48.8465 31.6589C48.7807 29.5148 48.3124 27.3907 47.4661 25.4146C47.0552 24.4505 46.554 23.5265 45.9747 22.6504C45.5187 21.9624 45.0668 21.4783 44.9066 20.7183C44.886 20.6183 44.8696 20.5143 44.8573 20.4023C44.808 19.8862 44.9025 19.5382 44.9928 19.0422C45.4407 16.5661 44.6519 15.006 42.6264 13.5219C42.61 13.5099 42.5895 13.4979 42.5689 13.4859C43.1687 12.5418 43.6165 11.5058 43.8466 10.4137C44.6313 6.66948 42.6347 2.58924 39.0522 0.961142C37.8402 0.41311 36.5707 0.117093 35.2766 0.0290881C32.4706 -0.162923 29.5865 0.613122 27.0887 1.84119C23.6377 3.53729 21.0042 6.50547 17.4299 7.96555C16.5877 8.30957 15.8277 8.46158 14.928 8.54158C14.3322 8.59759 13.6462 8.47758 13.0504 8.42558C12.1713 8.35357 10.8607 7.59353 10.4047 8.7736C9.78841 10.3737 12.9642 10.5777 13.905 10.6777C17.4751 11.0537 21.9861 8.45758 24.6565 6.32145C28.4485 3.28928 34.9027 0.0330883 39.3685 3.81331C41.9321 5.98544 42.2361 9.70165 40.3504 12.3498C40.0094 12.2338 39.6602 12.1258 39.3069 12.0458C38.1935 11.7978 37.187 11.8498 36.2174 12.4458C35.4204 12.9378 34.7179 13.5499 33.9866 14.1219C33.3292 14.6339 32.9225 14.5459 32.1091 14.4619C31.5134 14.4019 30.9176 14.3659 30.3178 14.3659C20.0798 14.3659 11.7851 22.3424 11.7851 32.183C11.7851 42.0235 20.0839 50 30.3178 50C40.5517 50 48.8506 42.0235 48.8506 32.183C48.8506 32.011 48.8506 31.8349 48.8465 31.6589Z" fill="#2F2F2F"/>
<path d="M34.3646 20.1062C33.2389 20.4022 32.0311 20.3862 30.8848 20.6542C28.6479 21.1806 26.5542 22.1712 24.747 23.5584C21.0412 26.4106 18.7775 30.8868 18.7981 35.4871C18.7981 35.7031 18.8022 35.9191 18.8145 36.1351C18.8515 36.8832 18.8885 38.0033 18.2311 38.5473C16.329 40.1234 14.7349 35.1071 14.5706 34.139C14.2296 32.1029 14.4638 29.9348 15.0554 27.9627C15.6889 25.8554 16.7835 23.9066 18.264 22.2503C21.2754 18.8741 25.7289 16.926 30.3179 16.926C31.5175 16.926 32.7993 17.014 33.962 17.33C34.8371 17.5701 35.9176 17.8621 36.275 18.7901C36.7433 20.0062 35.1493 19.9022 34.3646 20.1062Z" fill="white"/>
<path d="M7.48782 9.82958C8.33641 9.82958 9.02434 9.15976 9.02434 8.33349C9.02434 7.50722 8.33641 6.8374 7.48782 6.8374C6.63922 6.8374 5.95129 7.50722 5.95129 8.33349C5.95129 9.15976 6.63922 9.82958 7.48782 9.82958Z" fill="#ED6C30"/>
<path d="M6.33743 11.1896C5.68831 11.8657 4.93237 13.5378 5.01865 14.5098C5.03919 14.7618 5.10903 15.0058 5.22817 15.2339C5.51576 15.7779 6.36619 16.1299 6.9126 15.7819C7.33987 15.5139 7.57815 15.0658 7.69318 14.5898C7.86573 13.8858 7.89449 9.57352 6.33743 11.1896ZM12.4958 13.9018C12.6109 13.4497 12.4794 12.9937 12.2534 12.5977C11.9125 12.0017 9.11056 9.02149 9.09413 11.0976C9.09413 11.9617 9.66519 13.5858 10.3595 14.1978C10.5403 14.3578 10.7457 14.4818 10.9758 14.5658C11.5263 14.7618 12.3438 14.4738 12.4958 13.9018ZM4.48045 9.38151C3.60127 9.42551 1.9908 10.0696 1.40741 10.7656C1.2554 10.9496 1.13626 11.1536 1.06642 11.3816C0.897976 11.9217 1.23486 12.6937 1.82646 12.8017C2.29071 12.8897 2.74262 12.7377 3.13292 12.4977C3.72041 12.1377 6.58804 9.27751 4.48045 9.38151ZM12.5944 4.50923C12.8902 4.1212 13.0957 3.66118 13.0381 3.16515C12.9642 2.53711 12.1384 2.12109 11.5304 2.2571C11.2716 2.3131 11.0333 2.42111 10.8237 2.56111C10.0021 3.11715 9.16397 4.75324 9.04483 5.6693C8.75724 7.86942 12.1425 5.09326 12.5944 4.50923ZM4.41883 7.78942C5.5856 7.4774 4.85431 6.68535 4.24217 6.23333C3.50267 5.6893 2.50434 5.07726 1.56353 4.96125C0.971926 4.88925 0.326915 5.21727 0.0927393 5.7493C-0.194845 6.39734 0.228315 7.02537 0.78705 7.37739C1.62926 7.90543 3.50267 8.03343 4.41883 7.78942ZM7.15088 2.2451C6.99887 1.81307 6.74005 1.41305 6.31689 1.19703C5.77869 0.921018 5.01043 1.32504 4.79269 1.85307C4.70231 2.07709 4.66122 2.3091 4.66122 2.54911C4.66944 3.46117 5.52398 4.96125 6.18953 5.54129C7.78768 6.91737 7.37684 2.89313 7.15088 2.2451Z" fill="#CD541D"/>
</svg>
