<svg width="60" height="60" viewBox="0 0 60 60" fill="none" xmlns="http://www.w3.org/2000/svg">
<mask id="path-1-outside-1_287_64" maskUnits="userSpaceOnUse" x="0.214294" y="0.214233" width="58" height="60" fill="black">
<rect fill="white" x="0.214294" y="0.214233" width="58" height="60"/>
<path fill-rule="evenodd" clip-rule="evenodd" d="M54.0708 30.4441C54.9775 32.5614 55.4793 34.8372 55.5498 37.1345C55.5542 37.3231 55.5542 37.5117 55.5542 37.696C55.5542 48.2395 46.6625 56.7857 35.6976 56.7857C24.7327 56.7857 15.8411 48.2395 15.8411 37.696C15.8411 27.1525 24.7283 18.6063 35.6976 18.6063C36.3403 18.6063 36.9786 18.6449 37.6168 18.7092C37.6784 18.7155 37.7379 18.7219 37.7954 18.7281C38.5513 18.8093 38.9739 18.8547 39.6284 18.3449C39.8193 18.1955 40.0084 18.0437 40.1975 17.8918C40.7847 17.4201 41.3727 16.9478 42.0186 16.549C43.0574 15.9104 44.1359 15.8547 45.3288 16.1204C45.7073 16.2062 46.0815 16.3219 46.4468 16.4462C48.4673 13.6089 48.1415 9.6272 45.3948 7.29992C40.6101 3.24969 33.6948 6.73846 29.632 9.98722C26.7708 12.2759 21.9376 15.0575 18.1124 14.6546C18.0502 14.648 17.9788 14.641 17.8999 14.6332C16.6998 14.5148 13.7426 14.2231 14.3621 12.6145C14.7278 11.6683 15.6062 11.8863 16.42 12.0882C16.6936 12.1561 16.9599 12.2222 17.1969 12.2416C17.3619 12.256 17.5334 12.2753 17.7081 12.295C18.2088 12.3512 18.7353 12.4104 19.2085 12.3659C20.1725 12.2802 20.9868 12.1173 21.8892 11.7488C23.9575 10.9039 25.7317 9.58765 27.5088 8.26939C29.022 7.1468 30.5373 6.02272 32.2378 5.18694C34.9141 3.87115 38.0042 3.03967 41.0106 3.2454C42.3972 3.33969 43.7573 3.65685 45.0559 4.24403C48.8942 5.98842 51.0335 10.3601 50.1928 14.3718C49.9463 15.5418 49.4665 16.6519 48.8238 17.6634C48.8458 17.6762 48.8678 17.6891 48.8854 17.702C51.0555 19.292 51.9007 20.9636 51.4209 23.6166C51.4058 23.6996 51.3905 23.7787 51.3758 23.8552C51.2962 24.2689 51.231 24.6073 51.2756 25.0738C51.2888 25.1938 51.3064 25.3053 51.3284 25.4124C51.4617 26.0446 51.7833 26.4985 52.1491 27.0148C52.2545 27.1636 52.3636 27.3176 52.4729 27.4825C53.0936 28.4212 53.6306 29.4112 54.0708 30.4441ZM8.59142 18.7605C8.49898 17.719 9.30891 15.9275 10.0044 15.2032C11.6727 13.4716 11.6419 18.0919 11.457 18.8462C11.3337 19.3563 11.0784 19.8363 10.6206 20.1234C10.0352 20.4963 9.12404 20.1192 8.81591 19.5363C8.68826 19.292 8.61343 19.0305 8.59142 18.7605ZM16.343 16.7118C16.5851 17.1361 16.7259 17.6247 16.6027 18.109C16.4398 18.7219 15.5639 19.0305 14.974 18.8205C14.7275 18.7305 14.5074 18.5976 14.3138 18.4262C13.5699 17.7705 12.958 16.0304 12.958 15.1046C12.9756 12.8802 15.9776 16.0732 16.343 16.7118ZM4.72223 14.7488C5.34729 14.0031 7.0728 13.3131 8.01478 13.2659C10.2729 13.1545 7.20045 16.2189 6.57099 16.6047C6.15282 16.8618 5.66862 17.0247 5.17122 16.9304C4.53736 16.8147 4.17641 15.9875 4.35688 15.4089C4.43172 15.1646 4.55937 14.946 4.72223 14.7488ZM17.1837 6.60552C17.2454 7.13698 17.0253 7.62986 16.7083 8.0456C16.2241 8.67135 12.5971 11.6458 12.9052 9.28853C13.0328 8.30704 13.9308 6.55409 14.8112 5.95834C15.0357 5.80833 15.291 5.69261 15.5683 5.6326C16.2197 5.48688 17.1045 5.93262 17.1837 6.60552ZM7.75948 9.89285C8.41535 10.3772 9.19887 11.2258 7.94875 11.5601C6.96715 11.8215 4.95993 11.6844 4.05756 11.1186C3.45892 10.7415 3.00553 10.0686 3.31366 9.37425C3.56456 8.80422 4.25564 8.45277 4.8895 8.52991C5.89752 8.65421 6.96715 9.30996 7.75948 9.89285ZM9.98239 4.49682C10.4358 4.72826 10.7131 5.15686 10.876 5.61975C11.1181 6.31407 11.5582 10.6258 9.84593 9.15138C9.13284 8.52991 8.21726 6.92268 8.20846 5.94548C8.20846 5.68832 8.25248 5.43973 8.34932 5.19972C8.58261 4.63397 9.40575 4.20109 9.98239 4.49682Z"/>
</mask>
<path fill-rule="evenodd" clip-rule="evenodd" d="M54.0708 30.4441C54.9775 32.5614 55.4793 34.8372 55.5498 37.1345C55.5542 37.3231 55.5542 37.5117 55.5542 37.696C55.5542 48.2395 46.6625 56.7857 35.6976 56.7857C24.7327 56.7857 15.8411 48.2395 15.8411 37.696C15.8411 27.1525 24.7283 18.6063 35.6976 18.6063C36.3403 18.6063 36.9786 18.6449 37.6168 18.7092C37.6784 18.7155 37.7379 18.7219 37.7954 18.7281C38.5513 18.8093 38.9739 18.8547 39.6284 18.3449C39.8193 18.1955 40.0084 18.0437 40.1975 17.8918C40.7847 17.4201 41.3727 16.9478 42.0186 16.549C43.0574 15.9104 44.1359 15.8547 45.3288 16.1204C45.7073 16.2062 46.0815 16.3219 46.4468 16.4462C48.4673 13.6089 48.1415 9.6272 45.3948 7.29992C40.6101 3.24969 33.6948 6.73846 29.632 9.98722C26.7708 12.2759 21.9376 15.0575 18.1124 14.6546C18.0502 14.648 17.9788 14.641 17.8999 14.6332C16.6998 14.5148 13.7426 14.2231 14.3621 12.6145C14.7278 11.6683 15.6062 11.8863 16.42 12.0882C16.6936 12.1561 16.9599 12.2222 17.1969 12.2416C17.3619 12.256 17.5334 12.2753 17.7081 12.295C18.2088 12.3512 18.7353 12.4104 19.2085 12.3659C20.1725 12.2802 20.9868 12.1173 21.8892 11.7488C23.9575 10.9039 25.7317 9.58765 27.5088 8.26939C29.022 7.1468 30.5373 6.02272 32.2378 5.18694C34.9141 3.87115 38.0042 3.03967 41.0106 3.2454C42.3972 3.33969 43.7573 3.65685 45.0559 4.24403C48.8942 5.98842 51.0335 10.3601 50.1928 14.3718C49.9463 15.5418 49.4665 16.6519 48.8238 17.6634C48.8458 17.6762 48.8678 17.6891 48.8854 17.702C51.0555 19.292 51.9007 20.9636 51.4209 23.6166C51.4058 23.6996 51.3905 23.7787 51.3758 23.8552C51.2962 24.2689 51.231 24.6073 51.2756 25.0738C51.2888 25.1938 51.3064 25.3053 51.3284 25.4124C51.4617 26.0446 51.7833 26.4985 52.1491 27.0148C52.2545 27.1636 52.3636 27.3176 52.4729 27.4825C53.0936 28.4212 53.6306 29.4112 54.0708 30.4441ZM8.59142 18.7605C8.49898 17.719 9.30891 15.9275 10.0044 15.2032C11.6727 13.4716 11.6419 18.0919 11.457 18.8462C11.3337 19.3563 11.0784 19.8363 10.6206 20.1234C10.0352 20.4963 9.12404 20.1192 8.81591 19.5363C8.68826 19.292 8.61343 19.0305 8.59142 18.7605ZM16.343 16.7118C16.5851 17.1361 16.7259 17.6247 16.6027 18.109C16.4398 18.7219 15.5639 19.0305 14.974 18.8205C14.7275 18.7305 14.5074 18.5976 14.3138 18.4262C13.5699 17.7705 12.958 16.0304 12.958 15.1046C12.9756 12.8802 15.9776 16.0732 16.343 16.7118ZM4.72223 14.7488C5.34729 14.0031 7.0728 13.3131 8.01478 13.2659C10.2729 13.1545 7.20045 16.2189 6.57099 16.6047C6.15282 16.8618 5.66862 17.0247 5.17122 16.9304C4.53736 16.8147 4.17641 15.9875 4.35688 15.4089C4.43172 15.1646 4.55937 14.946 4.72223 14.7488ZM17.1837 6.60552C17.2454 7.13698 17.0253 7.62986 16.7083 8.0456C16.2241 8.67135 12.5971 11.6458 12.9052 9.28853C13.0328 8.30704 13.9308 6.55409 14.8112 5.95834C15.0357 5.80833 15.291 5.69261 15.5683 5.6326C16.2197 5.48688 17.1045 5.93262 17.1837 6.60552ZM7.75948 9.89285C8.41535 10.3772 9.19887 11.2258 7.94875 11.5601C6.96715 11.8215 4.95993 11.6844 4.05756 11.1186C3.45892 10.7415 3.00553 10.0686 3.31366 9.37425C3.56456 8.80422 4.25564 8.45277 4.8895 8.52991C5.89752 8.65421 6.96715 9.30996 7.75948 9.89285ZM9.98239 4.49682C10.4358 4.72826 10.7131 5.15686 10.876 5.61975C11.1181 6.31407 11.5582 10.6258 9.84593 9.15138C9.13284 8.52991 8.21726 6.92268 8.20846 5.94548C8.20846 5.68832 8.25248 5.43973 8.34932 5.19972C8.58261 4.63397 9.40575 4.20109 9.98239 4.49682Z" fill="#CD541D"/>
<path d="M55.5498 37.1345L58.0491 37.0762L58.0489 37.067L58.0486 37.0579L55.5498 37.1345ZM54.0708 30.4441L51.7709 31.4242L51.7726 31.4284L54.0708 30.4441ZM37.6168 18.7092L37.8736 16.2224L37.8674 16.2217L37.6168 18.7092ZM37.7954 18.7281L38.0624 16.2424L38.0623 16.2424L37.7954 18.7281ZM39.6284 18.3449L41.1647 20.3171L41.1688 20.314L39.6284 18.3449ZM40.1975 17.8918L38.6319 15.9427L38.6319 15.9427L40.1975 17.8918ZM42.0186 16.549L40.7094 14.4193L40.7054 14.4217L42.0186 16.549ZM45.3288 16.1204L45.8809 13.6822L45.8724 13.6802L45.3288 16.1204ZM46.4468 16.4462L45.6417 18.813L47.4037 19.4124L48.4833 17.8963L46.4468 16.4462ZM45.3948 7.29992L47.0109 5.39253L47.01 5.39177L45.3948 7.29992ZM29.632 9.98722L28.0707 8.03469L28.0703 8.03497L29.632 9.98722ZM18.1124 14.6546L17.8482 17.1406L17.8506 17.1409L18.1124 14.6546ZM17.8999 14.6332L18.1453 12.1453L18.1453 12.1453L17.8999 14.6332ZM14.3621 12.6145L12.0302 11.7134L12.0292 11.716L14.3621 12.6145ZM16.42 12.0882L17.0221 9.66185L17.0221 9.66185L16.42 12.0882ZM17.1969 12.2416L17.4143 9.75107L17.4009 9.74998L17.1969 12.2416ZM17.7081 12.295L17.4288 14.7793L17.4288 14.7793L17.7081 12.295ZM19.2085 12.3659L18.9871 9.87573L18.9745 9.87691L19.2085 12.3659ZM21.8892 11.7488L22.8345 14.0631L22.8346 14.0631L21.8892 11.7488ZM27.5088 8.26939L28.9982 10.2772L28.9982 10.2772L27.5088 8.26939ZM32.2378 5.18694L33.3405 7.4306L33.3408 7.43046L32.2378 5.18694ZM41.0106 3.2454L40.8399 5.73957L40.841 5.73964L41.0106 3.2454ZM45.0559 4.24403L46.0902 1.96804L46.0859 1.96609L45.0559 4.24403ZM50.1928 14.3718L52.6391 14.8871L52.6396 14.8846L50.1928 14.3718ZM48.8238 17.6634L46.7137 16.3227L45.322 18.513L47.5628 19.822L48.8238 17.6634ZM48.8854 17.702L50.3631 15.6854L50.3597 15.6829L48.8854 17.702ZM51.4209 23.6166L53.8804 24.0647L53.881 24.0615L51.4209 23.6166ZM51.3758 23.8552L53.8307 24.3278L53.8307 24.3277L51.3758 23.8552ZM51.2756 25.0738L48.7869 25.3116L48.7887 25.3294L48.7906 25.3473L51.2756 25.0738ZM51.3284 25.4124L48.8795 25.9154L48.8822 25.9281L51.3284 25.4124ZM52.1491 27.0148L54.189 25.5696L54.189 25.5696L52.1491 27.0148ZM52.4729 27.4825L54.5582 26.1036L54.5568 26.1014L52.4729 27.4825ZM10.0044 15.2032L8.20405 13.4686L8.20109 13.4717L10.0044 15.2032ZM8.59142 18.7605L11.0832 18.5574L11.0824 18.5484L11.0816 18.5395L8.59142 18.7605ZM11.457 18.8462L9.02884 18.2511L9.02694 18.259L11.457 18.8462ZM10.6206 20.1234L9.29218 18.0056L9.28489 18.0102L9.27762 18.0148L10.6206 20.1234ZM8.81591 19.5363L6.60014 20.6941L6.60571 20.7046L8.81591 19.5363ZM16.6027 18.109L19.0188 18.7511L19.0222 18.7384L19.0255 18.7256L16.6027 18.109ZM16.343 16.7118L18.5144 15.4729L18.513 15.4704L16.343 16.7118ZM14.974 18.8205L14.1166 21.1689L14.126 21.1723L14.1355 21.1757L14.974 18.8205ZM14.3138 18.4262L15.9708 16.5542L15.9669 16.5508L14.3138 18.4262ZM12.958 15.1046L10.4581 15.0848L10.458 15.0947V15.1046H12.958ZM8.01478 13.2659L7.89156 10.7689L7.88981 10.769L8.01478 13.2659ZM4.72223 14.7488L2.80623 13.143L2.8005 13.1498L2.79483 13.1566L4.72223 14.7488ZM6.57099 16.6047L5.26473 14.4731L5.2614 14.4751L6.57099 16.6047ZM5.17122 16.9304L5.63684 14.4741L5.62853 14.4726L5.62021 14.4711L5.17122 16.9304ZM4.35688 15.4089L6.74352 16.1533L6.74726 16.1411L4.35688 15.4089ZM16.7083 8.0456L18.6855 9.57553L18.691 9.56841L18.6965 9.56124L16.7083 8.0456ZM17.1837 6.60552L19.6671 6.31756L19.6666 6.31317L17.1837 6.60552ZM12.9052 9.28853L15.3841 9.61256L15.3843 9.61096L12.9052 9.28853ZM14.8112 5.95834L13.4222 3.8797L13.4161 3.88376L13.41 3.88786L14.8112 5.95834ZM15.5683 5.6326L16.097 8.07606L16.1055 8.07422L16.114 8.07231L15.5683 5.6326ZM7.94875 11.5601L8.59218 13.9759L8.59461 13.9752L7.94875 11.5601ZM7.75948 9.89285L9.24455 7.88174L9.24095 7.87909L7.75948 9.89285ZM4.05756 11.1186L2.72492 13.2338L2.72958 13.2368L4.05756 11.1186ZM3.31366 9.37425L5.59876 10.3883L5.60182 10.3814L3.31366 9.37425ZM4.8895 8.52991L5.19545 6.0487L5.19155 6.04823L4.8895 8.52991ZM10.876 5.61975L13.2366 4.79664L13.2342 4.78998L10.876 5.61975ZM9.98239 4.49682L8.84153 6.72134L8.84573 6.72348L9.98239 4.49682ZM9.84593 9.15138L8.2034 11.0361L8.20903 11.041L8.21469 11.0459L9.84593 9.15138ZM8.20846 5.94548H5.70846V5.95674L5.70856 5.968L8.20846 5.94548ZM8.34932 5.19972L6.03811 4.24666L6.03448 4.25546L6.03092 4.2643L8.34932 5.19972ZM58.0486 37.0579C57.9686 34.4489 57.399 31.8652 56.3689 29.4599L51.7726 31.4284C52.5561 33.2576 52.9901 35.2255 53.0509 37.2111L58.0486 37.0579ZM58.0542 37.696C58.0542 37.5164 58.0543 37.2987 58.0491 37.0762L53.0504 37.1929C53.0541 37.3475 53.0542 37.507 53.0542 37.696H58.0542ZM35.6976 59.2857C47.9493 59.2857 58.0542 49.7122 58.0542 37.696H53.0542C53.0542 46.7667 45.3757 54.2857 35.6976 54.2857V59.2857ZM13.3411 37.696C13.3411 49.7122 23.4459 59.2857 35.6976 59.2857V54.2857C26.0196 54.2857 18.3411 46.7667 18.3411 37.696H13.3411ZM35.6976 16.1063C23.4412 16.1063 13.3411 25.6801 13.3411 37.696H18.3411C18.3411 28.6249 26.0155 21.1063 35.6976 21.1063V16.1063ZM37.8674 16.2217C37.1635 16.1508 36.44 16.1063 35.6976 16.1063V21.1063C36.2406 21.1063 36.7936 21.1389 37.3663 21.1966L37.8674 16.2217ZM38.0623 16.2424C38.0055 16.2363 37.9411 16.2294 37.8736 16.2224L37.36 21.1959C37.4157 21.2017 37.4702 21.2075 37.5284 21.2138L38.0623 16.2424ZM38.0922 16.3726C38.0446 16.4097 38.0585 16.3918 38.1252 16.361C38.1589 16.3455 38.2004 16.3293 38.2479 16.3152C38.2956 16.301 38.3404 16.2916 38.3797 16.2857C38.4555 16.2743 38.4878 16.28 38.4319 16.2772C38.404 16.2758 38.3627 16.2729 38.2986 16.2668C38.2328 16.2606 38.1604 16.2529 38.0624 16.2424L37.5284 21.2138C37.8203 21.2451 38.4579 21.3297 39.1202 21.2305C39.9144 21.1116 40.5752 20.7763 41.1647 20.3171L38.0922 16.3726ZM38.6319 15.9427C38.4407 16.0963 38.2642 16.238 38.0881 16.3757L41.1688 20.314C41.3745 20.1531 41.5761 19.9911 41.7631 19.8408L38.6319 15.9427ZM40.7054 14.4217C39.906 14.9152 39.1994 15.4868 38.6319 15.9427L41.7631 19.8408C42.37 19.3533 42.8394 18.9804 43.3319 18.6763L40.7054 14.4217ZM45.8724 13.6802C44.2554 13.3201 42.4619 13.342 40.7094 14.4193L43.3279 18.6788C43.653 18.4789 44.0164 18.3894 44.7852 18.5606L45.8724 13.6802ZM47.252 14.0794C46.8472 13.9417 46.3805 13.7953 45.8809 13.6822L44.7767 18.5587C45.0342 18.617 45.3158 18.7021 45.6417 18.813L47.252 14.0794ZM43.7787 9.20732C45.4659 10.6369 45.7302 13.1426 44.4104 14.996L48.4833 17.8963C51.2043 14.0751 50.8172 8.61754 47.0109 5.39253L43.7787 9.20732ZM31.1932 11.9398C33.0674 10.4411 35.5073 8.97009 37.8996 8.3186C40.2555 7.67698 42.2293 7.89582 43.7796 9.20807L47.01 5.39177C43.7755 2.65379 39.8993 2.59189 36.5858 3.4943C33.3085 4.38682 30.2593 6.28458 28.0707 8.03469L31.1932 11.9398ZM17.8506 17.1409C20.4071 17.4101 23.0536 16.615 25.27 15.6054C27.5338 14.5742 29.6318 13.1888 31.1936 11.9395L28.0703 8.03497C26.771 9.07436 25.0218 10.2241 23.1973 11.0552C21.3256 11.9078 19.643 12.302 18.3743 12.1684L17.8506 17.1409ZM17.6544 17.1211C17.7362 17.1292 17.7973 17.1352 17.8482 17.1406L18.3767 12.1686C18.3031 12.1608 18.2215 12.1528 18.1453 12.1453L17.6544 17.1211ZM12.0292 11.716C11.5689 12.9111 11.7417 14.1867 12.5495 15.1745C13.1913 15.9593 14.0588 16.3417 14.6108 16.5381C15.7617 16.9475 17.1164 17.068 17.6544 17.1211L18.1453 12.1453C17.8422 12.1154 17.4998 12.0811 17.1449 12.0248C16.7793 11.9669 16.4863 11.8983 16.2865 11.8272C16.1907 11.7932 16.1593 11.7734 16.1718 11.7808C16.1806 11.7861 16.291 11.8514 16.42 12.0092C16.5627 12.1837 16.7098 12.4512 16.7603 12.7935C16.8098 13.1295 16.744 13.386 16.6951 13.513L12.0292 11.716ZM17.0221 9.66185C16.7406 9.59198 15.8544 9.34079 14.962 9.43448C14.4395 9.48933 13.8129 9.66427 13.227 10.1021C12.6375 10.5426 12.2583 11.123 12.0302 11.7134L16.694 13.5157C16.6487 13.633 16.5165 13.8857 16.22 14.1073C15.9271 14.3262 15.6395 14.3908 15.484 14.4072C15.3521 14.421 15.3006 14.4022 15.392 14.4176C15.4834 14.433 15.5965 14.4597 15.8178 14.5146L17.0221 9.66185ZM17.4009 9.74998C17.4275 9.75216 17.4145 9.75302 17.3369 9.73668C17.2582 9.72013 17.1677 9.69798 17.0221 9.66185L15.8178 14.5146C16.0361 14.5688 16.5135 14.694 16.9928 14.7333L17.4009 9.74998ZM17.9873 9.8106C17.8189 9.79167 17.6158 9.7687 17.4143 9.75111L16.9795 14.7322C17.108 14.7434 17.248 14.759 17.4288 14.7793L17.9873 9.8106ZM18.9745 9.87691C18.8066 9.89269 18.5496 9.8738 17.9873 9.8106L17.4288 14.7793C17.8681 14.8287 18.6639 14.9281 19.4425 14.855L18.9745 9.87691ZM20.9438 9.43438C20.3272 9.68625 19.7688 9.80624 18.9871 9.87576L19.4299 14.8561C20.5762 14.7542 21.6464 14.5484 22.8345 14.0631L20.9438 9.43438ZM26.0193 6.26155C24.2003 7.61093 22.6728 8.72809 20.9438 9.43441L22.8346 14.0631C25.2421 13.0796 27.2632 11.5644 28.9982 10.2772L26.0193 6.26155ZM31.1351 2.94328C29.1966 3.89601 27.502 5.16159 26.0193 6.26155L28.9982 10.2772C30.542 9.13202 31.8779 8.14944 33.3405 7.4306L31.1351 2.94328ZM41.1813 0.751232C37.622 0.507675 34.0896 1.49071 31.1348 2.94343L33.3408 7.43046C35.7386 6.25159 38.3864 5.57167 40.8399 5.73957L41.1813 0.751232ZM46.0859 1.96609C44.4931 1.24583 42.8383 0.863915 41.1802 0.75116L40.841 5.73964C41.956 5.81547 43.0216 6.06787 44.0258 6.52197L46.0859 1.96609ZM52.6396 14.8846C53.7172 9.74285 51.0087 4.20328 46.0902 1.96804L44.0215 6.52002C46.7798 7.77355 48.3498 10.9774 47.7459 13.859L52.6396 14.8846ZM50.9339 19.0041C51.717 17.7717 52.3235 16.385 52.6391 14.8871L47.7465 13.8564C47.569 14.6987 47.216 15.5321 46.7137 16.3227L50.9339 19.0041ZM50.3597 15.6829C50.2763 15.622 50.2047 15.577 50.1659 15.5531C50.1271 15.5293 50.0912 15.5084 50.0849 15.5047L47.5628 19.822C47.5784 19.8312 47.5645 19.8232 47.5467 19.8122C47.5288 19.8012 47.477 19.7691 47.4112 19.721L50.3597 15.6829ZM53.881 24.0615C54.1852 22.3792 54.108 20.7636 53.4304 19.2431C52.7666 17.7535 51.6454 16.625 50.3631 15.6854L47.4078 19.7185C48.2955 20.369 48.682 20.8713 48.8633 21.2783C49.0309 21.6543 49.1363 22.2009 48.9608 23.1717L53.881 24.0615ZM53.8307 24.3277C53.8452 24.2527 53.8627 24.1618 53.8804 24.0647L48.9614 23.1684C48.9488 23.2374 48.9359 23.3047 48.9208 23.3828L53.8307 24.3277ZM53.7643 24.836C53.7595 24.7864 53.7603 24.7541 53.7652 24.7086C53.7728 24.6367 53.7874 24.5528 53.8307 24.3278L48.9209 23.3827C48.8408 23.7984 48.7048 24.4521 48.7869 25.3116L53.7643 24.836ZM53.7773 24.9094C53.7715 24.881 53.7657 24.8462 53.7606 24.8003L48.7906 25.3473C48.812 25.5414 48.8414 25.7295 48.8796 25.9154L53.7773 24.9094ZM54.189 25.5696C53.7914 25.0083 53.7861 24.9511 53.7747 24.8967L48.8822 25.9281C49.1373 27.138 49.7752 27.9887 50.1091 28.46L54.189 25.5696ZM54.5568 26.1014C54.4227 25.8992 54.2917 25.7145 54.189 25.5696L50.1091 28.46C50.2173 28.6127 50.3044 28.736 50.3891 28.8637L54.5568 26.1014ZM56.3706 29.464C55.8688 28.2865 55.259 27.1634 54.5582 26.1036L50.3876 28.8614C50.9281 29.6789 51.3923 30.5359 51.7709 31.4242L56.3706 29.464ZM8.20109 13.4717C7.55935 14.14 7.03723 15.0773 6.69386 15.9035C6.36644 16.6913 6.00104 17.853 6.10121 18.9815L11.0816 18.5395C11.0896 18.6299 11.0725 18.6008 11.1136 18.4196C11.1503 18.2577 11.2161 18.0507 11.311 17.8223C11.4051 17.596 11.5136 17.3826 11.6188 17.2079C11.6708 17.1216 11.7168 17.0532 11.754 17.0027C11.7926 16.9502 11.8117 16.9305 11.8077 16.9347L8.20109 13.4717ZM13.8851 19.4413C14.007 18.9442 14.0397 18.2583 14.0426 17.729C14.0459 17.1278 14.0113 16.377 13.8894 15.6686C13.8287 15.3157 13.735 14.9052 13.5804 14.5016C13.4409 14.1376 13.1656 13.5457 12.6131 13.0593C11.9419 12.4685 10.9872 12.1573 9.97176 12.4002C9.141 12.5989 8.55537 13.1039 8.20405 13.4686L11.8047 16.9377C11.8705 16.8695 11.6488 17.1401 11.135 17.263C10.8445 17.3325 10.4937 17.345 10.126 17.2464C9.7655 17.1496 9.49334 16.9744 9.30926 16.8123C9.13304 16.6572 9.03222 16.5106 8.98391 16.4315C8.93411 16.3499 8.91357 16.2962 8.91134 16.2904C8.90956 16.2857 8.93369 16.3528 8.96183 16.5164C9.01766 16.8409 9.04499 17.2784 9.04266 17.7015C9.04154 17.9053 9.03366 18.0798 9.02371 18.207C9.01085 18.3712 9.00196 18.3608 9.02885 18.2511L13.8851 19.4413ZM11.9491 22.2413C13.1496 21.4883 13.6727 20.3206 13.887 19.4335L9.02694 18.259C9.01413 18.312 9.00885 18.3004 9.04068 18.2492C9.07746 18.19 9.1572 18.0903 9.29218 18.0056L11.9491 22.2413ZM6.60571 20.7046C7.10533 21.6498 7.96334 22.255 8.77778 22.5442C9.59369 22.8339 10.8267 22.9562 11.9637 22.2321L9.27762 18.0148C9.82914 17.6636 10.3139 17.7838 10.4508 17.8324C10.5863 17.8805 10.8346 18.0057 11.0261 18.3679L6.60571 20.7046ZM6.09968 18.9636C6.14875 19.5655 6.31682 20.1518 6.60016 20.6941L11.0317 18.3785C11.0597 18.4321 11.0781 18.4955 11.0832 18.5574L6.09968 18.9636ZM19.0255 18.7256C19.3685 17.3778 18.9323 16.2054 18.5144 15.4729L14.1716 17.9508C14.1955 17.9926 14.1795 17.9785 14.1644 17.9074C14.1473 17.827 14.133 17.6769 14.1799 17.4925L19.0255 18.7256ZM14.1355 21.1757C15.1093 21.5224 16.1166 21.4043 16.8914 21.0887C17.6564 20.7772 18.6704 20.0623 19.0188 18.7511L14.1865 17.467C14.3721 16.7687 14.8668 16.5145 15.0055 16.458C15.1542 16.3975 15.4286 16.3286 15.8126 16.4653L14.1355 21.1757ZM12.6567 20.2982C13.0791 20.672 13.569 20.9689 14.1166 21.1689L15.8315 16.4722C15.8562 16.4812 15.8825 16.4935 15.9085 16.509C15.9343 16.5245 15.9552 16.5404 15.9708 16.5542L12.6567 20.2982ZM10.458 15.1046C10.458 15.9933 10.7201 16.9835 11.0268 17.7724C11.32 18.5266 11.8367 19.5753 12.6606 20.3016L15.9669 16.5508C16.0413 16.6164 16.0175 16.6172 15.9315 16.474C15.8554 16.3472 15.7687 16.1709 15.6871 15.9609C15.6062 15.7527 15.5434 15.5454 15.5031 15.3679C15.4594 15.1757 15.458 15.0891 15.458 15.1046H10.458ZM18.513 15.4704C18.2633 15.034 17.827 14.5312 17.4841 14.1663C17.0905 13.7476 16.5727 13.2499 16.0221 12.8361C15.7478 12.6299 15.4127 12.4045 15.0399 12.222C14.7052 12.058 14.1232 11.8191 13.4129 11.8277C12.5521 11.838 11.6239 12.2235 11.0258 13.1037C10.538 13.8215 10.4619 14.5966 10.4581 15.0848L15.4579 15.1244C15.4579 15.1249 15.4578 15.1418 15.4546 15.1725C15.4514 15.2029 15.4445 15.2528 15.4294 15.3177C15.4003 15.4421 15.3306 15.6648 15.1613 15.9139C14.9817 16.1781 14.7175 16.43 14.3704 16.6048C14.0326 16.775 13.7121 16.8244 13.473 16.8273C13.2431 16.8301 13.0737 16.7908 12.9874 16.766C12.8979 16.7403 12.8473 16.7156 12.8409 16.7125C12.8346 16.7093 12.8932 16.7392 13.0181 16.8331C13.2658 17.0192 13.5681 17.3006 13.8408 17.5906C13.972 17.7303 14.079 17.8535 14.1532 17.9448C14.2512 18.0654 14.2322 18.0567 14.173 17.9533L18.513 15.4704ZM7.88981 10.769C7.00682 10.8132 6.0313 11.1156 5.25622 11.4513C4.51919 11.7704 3.49765 12.318 2.80623 13.143L6.63824 16.3547C6.57455 16.4307 6.57516 16.4053 6.72173 16.3109C6.85095 16.2276 7.03008 16.1318 7.2431 16.0395C7.45418 15.9481 7.66585 15.8744 7.84909 15.8244C8.0463 15.7706 8.14303 15.7626 8.13975 15.7628L7.88981 10.769ZM7.87725 18.7363C8.30416 18.4746 8.79085 18.0274 9.1436 17.6762C9.54709 17.2745 10.0258 16.7468 10.4187 16.1898C10.6141 15.9127 10.8291 15.5713 10.9988 15.1915C11.1494 14.8545 11.3762 14.2453 11.3241 13.5097C11.2595 12.5972 10.7707 11.701 9.85595 11.1845C9.12379 10.7712 8.36634 10.7455 7.89156 10.7689L8.138 15.7629C8.22775 15.7584 7.86826 15.8042 7.39783 15.5386C7.12913 15.3869 6.84954 15.1457 6.63919 14.8006C6.43249 14.4614 6.35514 14.1247 6.3366 13.863C6.3189 13.6132 6.35338 13.4249 6.37716 13.3264C6.40175 13.2246 6.42826 13.164 6.43377 13.1517C6.44178 13.1338 6.4196 13.1848 6.33276 13.3079C6.16109 13.5513 5.89484 13.8551 5.61576 14.133C5.48171 14.2665 5.36293 14.3758 5.2745 14.4519C5.15828 14.5521 5.16536 14.534 5.26473 14.4731L7.87725 18.7363ZM4.7056 19.3867C6.0432 19.6402 7.17052 19.1709 7.88058 18.7342L5.2614 14.4751C5.21201 14.5055 5.21557 14.4943 5.27322 14.4794C5.33945 14.4622 5.47049 14.4426 5.63684 14.4741L4.7056 19.3867ZM1.97029 14.6645C1.65372 15.6794 1.84189 16.7004 2.22296 17.462C2.60754 18.2305 3.41172 19.1505 4.72222 19.3898L5.62021 14.4711C6.29686 14.5946 6.60363 15.0431 6.69439 15.2245C6.78164 15.3988 6.87958 15.717 6.74348 16.1533L1.97029 14.6645ZM2.79483 13.1566C2.46212 13.5594 2.15426 14.0637 1.96651 14.6767L6.74726 16.1411C6.70917 16.2654 6.65662 16.3326 6.64964 16.3411L2.79483 13.1566ZM18.6965 9.56124C19.2209 8.87334 19.8322 7.74128 19.6671 6.31756L14.7004 6.89347C14.6803 6.72026 14.7124 6.58707 14.7356 6.52257C14.7552 6.46819 14.7642 6.47219 14.7202 6.52996L18.6965 9.56124ZM10.4263 8.9645C10.3611 9.46315 10.3293 10.256 10.7187 11.0445C11.1984 12.016 12.0835 12.5299 12.9526 12.6524C13.6675 12.7531 14.2883 12.5864 14.6517 12.4626C15.0565 12.3247 15.4312 12.1373 15.7437 11.9599C16.3712 11.6037 16.9797 11.1547 17.4497 10.7701C17.8662 10.4293 18.3772 9.97402 18.6855 9.57553L14.7311 6.51567C14.7944 6.43396 14.8013 6.44036 14.6784 6.55626C14.5814 6.64768 14.4459 6.76747 14.2833 6.90048C13.9467 7.17593 13.5769 7.44049 13.2756 7.61152C13.205 7.65157 13.1474 7.68118 13.1031 7.70203C13.0577 7.7234 13.037 7.73049 13.0392 7.72975C13.0411 7.72908 13.0527 7.72518 13.0733 7.71991C13.0936 7.71469 13.1271 7.70699 13.1724 7.7C13.2555 7.68721 13.4247 7.6695 13.65 7.70123C13.8847 7.73428 14.1969 7.82421 14.5109 8.03878C14.8337 8.2594 15.0612 8.5459 15.2019 8.83068C15.45 9.33308 15.3722 9.70323 15.3841 9.61256L10.4263 8.9645ZM13.41 3.88786C12.4791 4.51787 11.8017 5.5192 11.3869 6.27127C10.9561 7.05214 10.5457 8.04631 10.4261 8.9661L15.3843 9.61096C15.3839 9.61438 15.4006 9.51286 15.4763 9.30921C15.5466 9.12003 15.6457 8.90239 15.765 8.68629C15.8851 8.46856 16.0078 8.28452 16.1149 8.15018C16.2336 8.00127 16.2746 7.98663 16.2123 8.02881L13.41 3.88786ZM15.0396 3.18915C14.4225 3.32267 13.8787 3.57465 13.4222 3.8797L16.2001 8.03698C16.1926 8.04201 16.1594 8.06255 16.097 8.07606L15.0396 3.18915ZM19.6666 6.31317C19.5037 4.92948 18.5682 4.0598 17.8243 3.63772C17.0723 3.21098 16.0575 2.96139 15.0225 3.19289L16.114 8.07231C15.7305 8.15809 15.4839 8.05851 15.3568 7.98644C15.238 7.91901 14.7846 7.60866 14.7009 6.89787L19.6666 6.31317ZM8.59461 13.9752C9.13583 13.8305 10.0112 13.499 10.5998 12.6417C11.2946 11.6296 11.1606 10.5534 10.9006 9.88111C10.6685 9.28071 10.2935 8.83926 10.0487 8.58315C9.77687 8.29883 9.488 8.06151 9.24455 7.88174L6.27441 11.904C6.35889 11.9663 6.41391 12.0167 6.43442 12.0382C6.4819 12.0879 6.34766 11.9703 6.2371 11.6843C6.09874 11.3265 5.96717 10.5554 6.4778 9.81164C6.68777 9.50582 6.92674 9.33397 7.07344 9.24901C7.14798 9.20583 7.20776 9.17965 7.24452 9.16519C7.28153 9.15063 7.30262 9.14503 7.3029 9.14496L8.59461 13.9752ZM2.72958 13.2368C3.67653 13.8305 4.87059 14.0534 5.72938 14.1376C6.62695 14.2257 7.70352 14.2126 8.59218 13.9759L7.30532 9.14431C7.30643 9.14401 7.27489 9.15214 7.20492 9.16151C7.13733 9.17056 7.04945 9.1787 6.94296 9.18342C6.72743 9.19296 6.47498 9.18676 6.21751 9.1615C5.95802 9.13605 5.72921 9.09474 5.55388 9.04787C5.35939 8.99588 5.32404 8.96195 5.38554 9.00051L2.72958 13.2368ZM1.02856 8.36018C0.529599 9.48453 0.676407 10.609 1.10531 11.475C1.50379 12.2795 2.13107 12.8597 2.72492 13.2338L5.3902 9.00344C5.40044 9.00989 5.42055 9.02372 5.44904 9.0534C5.47667 9.08218 5.5316 9.14628 5.58583 9.25577C5.64167 9.36851 5.70123 9.53979 5.71245 9.75889C5.7241 9.98653 5.67998 10.2053 5.59875 10.3883L1.02856 8.36018ZM5.19155 6.04823C3.59889 5.85438 1.77295 6.66895 1.0255 8.36711L5.60182 10.3814C5.46345 10.6958 5.25357 10.8525 5.12437 10.9206C4.99445 10.9891 4.81635 11.0395 4.58746 11.0116L5.19155 6.04823ZM9.24095 7.87909C8.41463 7.27119 6.89441 6.2582 5.19545 6.04871L4.58356 11.0111C4.90062 11.0502 5.51968 11.3487 6.27801 11.9066L9.24095 7.87909ZM13.2342 4.78998C12.952 3.98786 12.3533 2.9002 11.119 2.27016L8.84573 6.72348C8.68898 6.64347 8.59075 6.54126 8.54259 6.47745C8.5004 6.42153 8.50094 6.40196 8.51767 6.44951L13.2342 4.78998ZM8.21469 11.0459C8.58372 11.3636 9.20071 11.8054 10.0346 11.9258C11.0574 12.0734 11.9734 11.6804 12.5828 11.0337C13.0826 10.5033 13.2962 9.89684 13.397 9.53395C13.5092 9.13003 13.5612 8.72726 13.5868 8.3863C13.6383 7.70158 13.6027 6.98713 13.5452 6.41958C13.4948 5.92268 13.4013 5.2692 13.2366 4.79664L8.51534 6.44285C8.47681 6.33234 8.48272 6.31339 8.5091 6.46364C8.52915 6.57782 8.55171 6.73678 8.5707 6.92405C8.61026 7.31414 8.62312 7.71565 8.60088 8.01135C8.58966 8.16059 8.57427 8.21415 8.57932 8.19593C8.58285 8.18323 8.60049 8.12153 8.64517 8.02988C8.68859 7.94083 8.77859 7.78006 8.94379 7.60474C9.1163 7.42166 9.37595 7.21858 9.73143 7.08729C10.0936 6.95353 10.449 6.93377 10.7489 6.97706C11.28 7.05372 11.5362 7.30774 11.4772 7.2569L8.21469 11.0459ZM5.70856 5.968C5.71843 7.06346 6.17662 8.14082 6.55455 8.85331C6.95271 9.60394 7.53129 10.4503 8.2034 11.0361L11.4885 7.26668C11.4926 7.27027 11.4234 7.20631 11.3047 7.04487C11.1944 6.89486 11.0771 6.70919 10.9716 6.51035C10.8651 6.30955 10.7881 6.12809 10.742 5.98826C10.6895 5.82914 10.7074 5.8163 10.7084 5.92296L5.70856 5.968ZM6.03092 4.2643C5.80427 4.82603 5.70846 5.3952 5.70846 5.94548H10.7085C10.7085 5.9602 10.7071 5.98722 10.7005 6.02315C10.6937 6.05958 10.6827 6.09791 10.6677 6.13514L6.03092 4.2643ZM11.1232 2.27231C9.93998 1.66547 8.74543 1.90574 7.98782 2.25607C7.23102 2.60603 6.44132 3.26888 6.03811 4.24666L10.6605 6.15278C10.4906 6.56481 10.2291 6.72835 10.0864 6.79436C9.94282 6.86074 9.44816 7.03244 8.84153 6.72133L11.1232 2.27231Z" fill="white" mask="url(#path-1-outside-1_287_64)"/>
<path d="M55.5498 37.1345C55.4793 34.8372 54.9775 32.5614 54.0707 30.4441C53.6306 29.4112 53.0935 28.4212 52.4729 27.4825C51.9843 26.7453 51.5001 26.2267 51.3284 25.4124C51.3064 25.3053 51.2888 25.1938 51.2756 25.0738C51.2228 24.5209 51.324 24.148 51.4209 23.6166C51.9007 20.9636 51.0555 19.292 48.8854 17.702C48.8678 17.6891 48.8458 17.6762 48.8238 17.6634C49.4665 16.6519 49.9463 15.5418 50.1928 14.3718C51.0335 10.3601 48.8942 5.98842 45.0559 4.24403C43.7573 3.65685 42.3972 3.33969 41.0106 3.2454C38.0042 3.03967 34.9141 3.87115 32.2378 5.18694C28.5403 7.00419 25.7187 10.1844 21.8892 11.7488C20.9868 12.1173 20.1725 12.2802 19.2085 12.3659C18.5702 12.4259 17.8351 12.2974 17.1969 12.2416C16.2549 12.1645 14.8507 11.3502 14.3621 12.6145C13.7018 14.3289 17.1044 14.5475 18.1124 14.6546C21.9376 15.0575 26.7708 12.2759 29.6319 9.98722C33.6948 6.73846 40.61 3.24969 45.3948 7.29992C48.1415 9.6272 48.4673 13.6089 46.4468 16.4462C46.0815 16.3219 45.7073 16.2062 45.3288 16.1204C44.1359 15.8547 43.0574 15.9104 42.0186 16.549C41.1647 17.0762 40.412 17.732 39.6284 18.3449C38.9241 18.8935 38.4884 18.7992 37.6168 18.7092C36.9786 18.6449 36.3403 18.6063 35.6976 18.6063C24.7283 18.6063 15.8411 27.1525 15.8411 37.696C15.8411 48.2395 24.7327 56.7857 35.6976 56.7857C46.6625 56.7857 55.5542 48.2395 55.5542 37.696C55.5542 37.5117 55.5542 37.3231 55.5498 37.1345Z" fill="#2F2F2F"/>
<path d="M40.0335 24.7567C38.8274 25.0739 37.5333 25.0567 36.3052 25.3439C33.9085 25.9078 31.6652 26.9692 29.7289 28.4555C25.7584 31.5114 23.333 36.3074 23.3551 41.2362C23.3551 41.4677 23.3595 41.6991 23.3727 41.9306C23.4123 42.732 23.4519 43.9321 22.7476 44.515C20.7096 46.2037 19.0017 40.8291 18.8256 39.7919C18.4602 37.6103 18.7112 35.2873 19.345 33.1743C20.0238 30.9165 21.1966 28.8286 22.7828 27.054C26.0093 23.4366 30.7809 21.3494 35.6977 21.3494C36.983 21.3494 38.3564 21.4437 39.6021 21.7822C40.5397 22.0394 41.6974 22.3523 42.0803 23.3466C42.5821 24.6496 40.8742 24.5381 40.0335 24.7567Z" fill="white"/>
<path d="M11.237 13.7459C12.1462 13.7459 12.8832 13.0283 12.8832 12.143C12.8832 11.2577 12.1462 10.54 11.237 10.54C10.3278 10.54 9.5907 11.2577 9.5907 12.143C9.5907 13.0283 10.3278 13.7459 11.237 13.7459Z" fill="#ED6C30"/>
<path d="M10.0044 15.2032C9.30891 15.9275 8.49898 17.7191 8.59142 18.7606C8.61343 19.0306 8.68826 19.292 8.81591 19.5363C9.12404 20.1192 10.0352 20.4964 10.6206 20.1235C11.0784 19.8363 11.3337 19.3563 11.457 18.8463C11.6419 18.092 11.6727 13.4717 10.0044 15.2032ZM16.6027 18.1091C16.7259 17.6248 16.5851 17.1362 16.343 16.7119C15.9776 16.0733 12.9756 12.8802 12.958 15.1046C12.958 16.0304 13.5699 17.7705 14.3138 18.4263C14.5074 18.5977 14.7275 18.7306 14.974 18.8206C15.5639 19.0306 16.4398 18.722 16.6027 18.1091ZM8.01478 13.266C7.0728 13.3131 5.34729 14.0031 4.72223 14.7489C4.55937 14.9461 4.43172 15.1646 4.35688 15.4089C4.17641 15.9875 4.53736 16.8147 5.17122 16.9305C5.66862 17.0247 6.15282 16.8619 6.57099 16.6047C7.20045 16.219 10.2729 13.1545 8.01478 13.266ZM16.7083 8.04565C17.0253 7.62991 17.2454 7.13703 17.1837 6.60557C17.1045 5.93267 16.2197 5.48693 15.5683 5.63266C15.291 5.69266 15.0357 5.80838 14.8112 5.95839C13.9308 6.55414 13.0328 8.3071 12.9052 9.28858C12.5971 11.6459 16.2241 8.6714 16.7083 8.04565ZM7.94875 11.5601C9.19887 11.2258 8.41535 10.3772 7.75948 9.8929C6.96715 9.31001 5.89752 8.65426 4.8895 8.52997C4.25564 8.45282 3.56456 8.80427 3.31366 9.3743C3.00553 10.0686 3.45892 10.7415 4.05756 11.1187C4.95993 11.6844 6.96715 11.8216 7.94875 11.5601ZM10.876 5.6198C10.7131 5.15691 10.4358 4.72832 9.98239 4.49687C9.40575 4.20114 8.58261 4.63403 8.34932 5.19977C8.25248 5.43979 8.20846 5.68837 8.20846 5.94553C8.21726 6.92273 9.13284 8.52997 9.84593 9.15143C11.5582 10.6258 11.1181 6.31412 10.876 5.6198Z" fill="#CD541D"/>
</svg>
