<svg width="81" height="82" viewBox="0 0 81 82" fill="none" xmlns="http://www.w3.org/2000/svg">
<rect x="2.5" y="2.5" width="76" height="77" rx="22.5" fill="white" stroke="#0D1D23" stroke-width="5"/>
<path d="M58.5162 43.7836C59.7515 43.7836 60.8415 42.7719 60.8415 41.4639C60.9142 40.8135 60.6235 40.2354 60.0422 39.7295L56.2054 36.3691V27.625C56.2054 26.3459 55.1662 25.3125 53.88 25.3125H51.5547C50.2685 25.3125 49.2293 26.3459 49.2293 27.625V30.2771L41.4903 23.5059C41.0543 23.1445 40.473 23 39.9643 23C39.4557 23 38.8743 23.0723 38.3657 23.5781L19.7267 39.7295C19.218 40.2354 19 40.8135 19 41.4639C19 42.7646 20.0173 43.7836 21.3253 43.7836H23.6507V48.8205C23.6434 48.8855 23.6434 48.9506 23.6434 49.0229V57.1094C23.6434 58.7064 24.9441 60 26.5501 60H27.7127C27.7999 60 27.8871 59.9928 27.9743 59.9855C28.0833 59.9928 28.1923 60 28.3013 60H30.6267H32.3707C33.9766 60 35.2773 58.7064 35.2773 57.1094V55.375V50.75C35.2773 49.4709 36.3165 48.4375 37.6027 48.4375H42.2533C43.5395 48.4375 44.5787 49.4709 44.5787 50.75V55.375V57.1094C44.5787 58.7064 45.8794 60 47.4853 60H49.2293H51.591C51.6928 60 51.7945 60 51.8962 59.9928C51.9762 60 52.0561 60 52.136 60H53.2987C54.9046 60 56.2054 58.7064 56.2054 57.1094V55.9387C56.2272 55.7508 56.2417 55.5557 56.2417 55.3533L56.1908 43.7764H58.5162V43.7836Z" fill="#0D1D23"/>
</svg>
