<svg width="70" height="70" viewBox="0 0 70 70" fill="none" xmlns="http://www.w3.org/2000/svg">
<path d="M51.4436 36.8641C52.5204 36.8641 53.4704 35.9945 53.4704 34.8702C53.5338 34.3112 53.2804 33.8143 52.7737 33.3795L49.4294 30.4911V22.9753C49.4294 21.8759 48.5237 20.9877 47.4026 20.9877H45.3757C44.2547 20.9877 43.3489 21.8759 43.3489 22.9753V25.2549L36.6033 19.4348C36.2233 19.1242 35.7166 19 35.2732 19C34.8298 19 34.3231 19.0621 33.8798 19.4969L17.6334 33.3795C17.19 33.8143 17 34.3112 17 34.8702C17 35.9883 17.8867 36.8641 19.0268 36.8641H21.0537V41.1934C21.0473 41.2493 21.0473 41.3052 21.0473 41.3674V48.3179C21.0473 49.6907 22.1811 50.8025 23.5809 50.8025H24.5943C24.6703 50.8025 24.7463 50.7963 24.8223 50.7901C24.9173 50.7963 25.0123 50.8025 25.1074 50.8025H27.1342H28.6543C30.0541 50.8025 31.1879 49.6907 31.1879 48.3179V46.8272V42.8519C31.1879 41.7525 32.0936 40.8642 33.2147 40.8642H37.2684C38.3895 40.8642 39.2952 41.7525 39.2952 42.8519V46.8272V48.3179C39.2952 49.6907 40.429 50.8025 41.8288 50.8025H43.3489H45.4074C45.4961 50.8025 45.5848 50.8025 45.6734 50.7963C45.7431 50.8025 45.8128 50.8025 45.8825 50.8025H46.8959C48.2957 50.8025 49.4294 49.6907 49.4294 48.3179V47.3117C49.4484 47.1502 49.4611 46.9825 49.4611 46.8086L49.4168 36.8579H51.4436V36.8641Z" fill="#0D1D23"/>
</svg>
