<svg width="70" height="70" viewBox="0 0 70 70" fill="none" xmlns="http://www.w3.org/2000/svg">
<rect width="3.91637" height="53.8501" rx="1.95819" transform="matrix(0.712034 -0.702145 0.712034 0.702145 13.8028 18.3054)" fill="#0D1D23"/>
<path fill-rule="evenodd" clip-rule="evenodd" d="M53.2394 19.7518C53.2394 19.0423 52.8974 18.3679 52.3203 17.9464C51.7432 17.5178 50.9951 17.3914 50.304 17.5951L27.5047 24.3392C26.5429 24.6272 25.8803 25.5054 25.8803 26.4959V30.1287L30.4401 34.6252V33.2259L48.6796 27.8307V38.0592C47.9671 37.8484 47.1976 37.736 46.3996 37.736C42.6235 37.736 39.5599 40.251 39.5599 43.3561C39.5599 43.4465 39.5625 43.5365 39.5676 43.6259L44.8454 48.8304C45.3448 48.9258 45.8651 48.9762 46.3996 48.9762C50.1758 48.9762 53.2394 46.4612 53.2394 43.3561V24.8099V19.7518ZM30.4401 38.7495L25.8803 34.253V42.5552C25.1678 42.3445 24.3983 42.2321 23.6003 42.2321C19.8242 42.2321 16.7606 44.7471 16.7606 47.8522C16.7606 50.9572 19.8242 53.4722 23.6003 53.4722C27.3765 53.4722 30.4401 50.9572 30.4401 47.8522V38.7495Z" fill="#0D1D23"/>
</svg>
