<svg width="81" height="82" viewBox="0 0 81 82" fill="none" xmlns="http://www.w3.org/2000/svg">
<rect x="2.5" y="2.5" width="76" height="77" rx="22.5" fill="white" stroke="#0D1D23" stroke-width="5"/>
<path d="M58.0678 23.4591C58.6531 23.8927 59 24.5864 59 25.3162V30.5187V49.5948C59 52.7887 55.8926 55.3755 52.0625 55.3755C48.2324 55.3755 45.125 52.7887 45.125 49.5948C45.125 46.401 48.2324 43.8142 52.0625 43.8142C52.8719 43.8142 53.6523 43.9298 54.375 44.1466V33.6258L35.875 39.1752V54.2194C35.875 57.4132 32.7676 60 28.9375 60C25.1074 60 22 57.4132 22 54.2194C22 51.0256 25.1074 48.4387 28.9375 48.4387C29.7469 48.4387 30.5273 48.5543 31.25 48.7711V37.4555V32.2529C31.25 31.2341 31.9221 30.3309 32.8977 30.0346L56.0227 23.0978C56.7236 22.8883 57.4824 23.0184 58.0678 23.4591Z" fill="#0D1D23"/>
</svg>
