<svg width="70" height="70" viewBox="0 0 70 70" fill="none" xmlns="http://www.w3.org/2000/svg">
<path d="M52.3203 17.9464C52.8974 18.3679 53.2394 19.0423 53.2394 19.7518V24.8099V43.3561C53.2394 46.4612 50.1758 48.9762 46.3996 48.9762C42.6235 48.9762 39.5599 46.4612 39.5599 43.3561C39.5599 40.251 42.6235 37.736 46.3996 37.736C47.1976 37.736 47.9671 37.8484 48.6796 38.0592V27.8307L30.4401 33.2259V47.8522C30.4401 50.9572 27.3765 53.4722 23.6003 53.4722C19.8242 53.4722 16.7606 50.9572 16.7606 47.8522C16.7606 44.7471 19.8242 42.2321 23.6003 42.2321C24.3983 42.2321 25.1678 42.3445 25.8803 42.5552V31.554V26.4959C25.8803 25.5054 26.5429 24.6272 27.5047 24.3392L50.304 17.5951C50.9951 17.3914 51.7432 17.5178 52.3203 17.9464Z" fill="#0D1D23"/>
</svg>
