<svg width="70" height="70" viewBox="0 0 70 70" fill="none" xmlns="http://www.w3.org/2000/svg">
<path d="M24.993 17.5C22.6252 17.5 20.7042 19.5141 20.7042 21.9965V48.9757C20.7042 51.4582 22.6252 53.4722 24.993 53.4722H27.8521C30.2198 53.4722 32.1408 51.4582 32.1408 48.9757V21.9965C32.1408 19.5141 30.2198 17.5 27.8521 17.5H24.993ZM42.1479 17.5C39.7801 17.5 37.8592 19.5141 37.8592 21.9965V48.9757C37.8592 51.4582 39.7801 53.4722 42.1479 53.4722H45.007C47.3748 53.4722 49.2958 51.4582 49.2958 48.9757V21.9965C49.2958 19.5141 47.3748 17.5 45.007 17.5H42.1479Z" fill="#0D1D23"/>
</svg>
