<svg width="81" height="82" viewBox="0 0 81 82" fill="none" xmlns="http://www.w3.org/2000/svg">
<rect x="2.5" y="2.5" width="76" height="77" rx="22.5" fill="white" stroke="#0D1D23" stroke-width="5"/>
<path d="M30.35 23C27.9484 23 26 25.0716 26 27.625V55.375C26 57.9284 27.9484 60 30.35 60H33.25C35.6516 60 37.6 57.9284 37.6 55.375V27.625C37.6 25.0716 35.6516 23 33.25 23H30.35ZM47.75 23C45.3484 23 43.4 25.0716 43.4 27.625V55.375C43.4 57.9284 45.3484 60 47.75 60H50.65C53.0516 60 55 57.9284 55 55.375V27.625C55 25.0716 53.0516 23 50.65 23H47.75Z" fill="#0D1D23"/>
</svg>
