<svg width="60" height="60" viewBox="0 0 60 60" fill="none" xmlns="http://www.w3.org/2000/svg">
<mask id="path-1-outside-1_287_76" maskUnits="userSpaceOnUse" x="4" y="1" width="52" height="59" fill="black">
<rect fill="white" x="4" y="1" width="52" height="59"/>
<path fill-rule="evenodd" clip-rule="evenodd" d="M48.2563 17.7629C48.0083 17.4993 47.7529 17.2399 47.4872 16.9865C40.3429 10.2043 29.9153 8.44423 21.0668 11.7062C29.9152 8.44429 40.3428 10.2044 47.487 16.9865C47.7496 17.2398 48.0061 17.4986 48.2563 17.7629ZM48.9142 18.4868C48.9185 18.4917 48.9229 18.4966 48.9272 18.5016L52.0417 12.6603C39.8805 1.11324 20.1601 1.11324 8 12.6603L11.114 18.5008C11.1137 18.5011 11.1135 18.5014 11.1132 18.5017L30.0208 53.9605L48.9272 18.5017C48.9229 18.4967 48.9185 18.4918 48.9142 18.4868Z"/>
</mask>
<path fill-rule="evenodd" clip-rule="evenodd" d="M48.2563 17.7629C48.0083 17.4993 47.7529 17.2399 47.4872 16.9865C40.3429 10.2043 29.9153 8.44423 21.0668 11.7062C29.9152 8.44429 40.3428 10.2044 47.487 16.9865C47.7496 17.2398 48.0061 17.4986 48.2563 17.7629ZM48.9142 18.4868C48.9185 18.4917 48.9229 18.4966 48.9272 18.5016L52.0417 12.6603C39.8805 1.11324 20.1601 1.11324 8 12.6603L11.114 18.5008C11.1137 18.5011 11.1135 18.5014 11.1132 18.5017L30.0208 53.9605L48.9272 18.5017C48.9229 18.4967 48.9185 18.4918 48.9142 18.4868Z" fill="#FCEA2B"/>
<path d="M47.4872 16.9865L49.2125 15.1772L49.2084 15.1734L47.4872 16.9865ZM48.2563 17.7629L46.4409 19.4817L50.0767 16.0493L48.2563 17.7629ZM47.487 16.9865L49.2225 15.1871L49.2154 15.1802L49.2083 15.1734L47.487 16.9865ZM48.9142 18.4868L50.7888 16.8327L47.0302 20.1301L48.9142 18.4868ZM48.9272 18.5016L47.0516 20.1544L49.4363 22.8605L51.1333 19.6778L48.9272 18.5016ZM52.0417 12.6603L54.2477 13.8365L55.1429 12.1575L53.7631 10.8473L52.0417 12.6603ZM8 12.6603L6.27852 10.8474L4.89882 12.1576L5.79397 13.8365L8 12.6603ZM11.114 18.5008L12.9863 20.1575L14.137 18.857L13.32 17.3247L11.114 18.5008ZM11.1132 18.5017L9.2409 16.8451L8.09015 18.1457L8.90724 19.678L11.1132 18.5017ZM30.0208 53.9605L27.8148 55.1368L30.0209 59.274L32.2268 55.1368L30.0208 53.9605ZM48.9272 18.5017L51.1332 19.678L51.9434 18.1585L50.8125 16.8599L48.9272 18.5017ZM45.7619 18.7958C45.9898 19.013 46.2132 19.2398 46.4359 19.4764L50.0767 16.0493C49.8033 15.7589 49.5161 15.4668 49.2125 15.1772L45.7619 18.7958ZM21.9315 14.0519C29.9403 11.0995 39.3523 12.711 45.766 18.7996L49.2084 15.1734C41.3335 7.69765 29.8903 5.78897 20.2021 9.36049L21.9315 14.0519ZM49.2083 15.1734C41.3334 7.69773 29.8903 5.78904 20.2021 9.36049L21.9315 14.0519C29.9402 11.0996 39.3522 12.7111 45.7658 18.7997L49.2083 15.1734ZM50.0717 16.044C49.7954 15.7523 49.5123 15.4665 49.2225 15.1871L45.7516 18.786C45.987 19.013 46.2168 19.245 46.4409 19.4817L50.0717 16.044ZM47.0396 20.1408C47.0433 20.1451 47.0472 20.1494 47.0516 20.1544L50.8029 16.8487C50.7986 16.8439 50.7937 16.8383 50.7888 16.8327L47.0396 20.1408ZM51.1333 19.6778L54.2477 13.8365L49.8356 11.4841L46.7212 17.3254L51.1333 19.6778ZM53.7631 10.8473C40.6371 -1.61574 19.4034 -1.61585 6.27852 10.8474L9.72148 14.4732C20.9167 3.84232 39.1238 3.84221 50.3203 14.4732L53.7631 10.8473ZM5.79397 13.8365L8.90796 19.677L13.32 17.3247L10.206 11.4841L5.79397 13.8365ZM9.24168 16.8442C9.24105 16.8449 9.24053 16.8455 9.24019 16.8459C9.23988 16.8462 9.2396 16.8466 9.23957 16.8466C9.2393 16.8469 9.24003 16.8461 9.2409 16.8451L12.9855 20.1584C12.9862 20.1576 12.9867 20.1571 12.987 20.1567C12.9873 20.1563 12.9876 20.156 12.9876 20.156C12.9879 20.1557 12.9872 20.1565 12.9863 20.1575L9.24168 16.8442ZM8.90724 19.678L27.8148 55.1368L32.2268 52.7842L13.3192 17.3254L8.90724 19.678ZM32.2268 55.1368L51.1332 19.678L46.7212 17.3255L27.8148 52.7843L32.2268 55.1368ZM50.8125 16.8599C50.8081 16.8549 50.8032 16.8492 50.7982 16.8434L47.0302 20.1301C47.0339 20.1343 47.0376 20.1386 47.0419 20.1436L50.8125 16.8599Z" fill="white" mask="url(#path-1-outside-1_287_76)"/>
<path d="M47.4872 16.9865C47.9983 17.4739 48.4709 17.9837 48.9272 18.5016L52.0417 12.6603C39.8805 1.11324 20.1601 1.11324 8 12.6603L11.1144 18.5016C11.5708 17.9837 12.0433 17.4739 12.5545 16.9865C22.2027 7.82735 37.839 7.82735 47.4872 16.9865Z" fill="#E79D56"/>
<path d="M48.9272 18.5017C48.4704 17.9771 47.9899 17.4715 47.487 16.9865C37.8389 7.82741 22.2026 7.82741 12.5544 16.9865C12.0432 17.4739 11.5707 17.9837 11.1132 18.5017L30.0208 53.9605L48.9272 18.5017Z" fill="#FCEA2B"/>
<path d="M24.6513 26.4313C27.6169 26.4313 30.0208 24.1488 30.0208 21.3331C30.0208 18.5176 27.6169 16.2351 24.6513 16.2351C21.6856 16.2351 19.2816 18.5176 19.2816 21.3331C19.2816 24.1488 21.6856 26.4313 24.6513 26.4313Z" fill="#CD541D"/>
<path d="M38.6123 24.3919C40.3916 24.3919 41.8341 23.0225 41.8341 21.3331C41.8341 19.6437 40.3916 18.2743 38.6123 18.2743C36.8329 18.2743 35.3905 19.6437 35.3905 21.3331C35.3905 23.0225 36.8329 24.3919 38.6123 24.3919Z" fill="#CD541D"/>
<path d="M31.0947 36.6272C32.874 36.6272 34.3165 35.2577 34.3165 33.5683C34.3165 31.879 32.874 30.5095 31.0947 30.5095C29.3154 30.5095 27.8729 31.879 27.8729 33.5683C27.8729 35.2577 29.3154 36.6272 31.0947 36.6272Z" fill="#CD541D"/>
</svg>
