<svg width="70" height="70" viewBox="0 0 70 70" fill="none" xmlns="http://www.w3.org/2000/svg">
<path d="M19.555 32.043H18.8868C17.8412 32.043 17 31.2048 17 30.163V20.1363C17 19.3765 17.456 18.6872 18.1635 18.3973C18.8711 18.1075 19.6808 18.2642 20.2233 18.8047L23.4937 22.0633C30.3805 15.2875 41.4733 15.311 48.3208 22.1417C55.1997 28.9958 55.1997 40.1034 48.3208 46.9576C41.4419 53.8117 30.294 53.8117 23.4151 46.9576C22.4324 45.9784 22.4324 44.3883 23.4151 43.4091C24.3978 42.4299 25.9937 42.4299 26.9764 43.4091C31.89 48.3049 39.8538 48.3049 44.7673 43.4091C49.6809 38.5133 49.6809 30.5781 44.7673 25.6823C39.8774 20.81 31.9764 20.7865 27.055 25.604L30.2862 28.8313C30.8286 29.3718 30.9859 30.1786 30.695 30.8836C30.4041 31.5886 29.7123 32.043 28.9497 32.043H19.555Z" fill="#0D1D23"/>
</svg>
