<svg width="70" height="70" viewBox="0 0 70 70" fill="none" xmlns="http://www.w3.org/2000/svg">
<g clip-path="url(#clip0_332_46)">
<path fill-rule="evenodd" clip-rule="evenodd" d="M25.3217 41.5162H21.0522C18.682 41.5162 16.7606 39.6197 16.7606 37.2802V33.0442C16.7606 30.7047 18.682 28.8082 21.0522 28.8082H25.561L34.4257 20.9619C35.8075 19.7389 38.0041 20.7069 38.0041 22.5388V47.9974C38.0041 49.8292 35.8075 50.7974 34.4257 49.5742L25.3217 41.5162Z" fill="#0D1D23"/>
<path fill-rule="evenodd" clip-rule="evenodd" d="M41.9685 30.7784C42.4067 30.0151 43.3889 29.747 44.1622 30.1795L43.3687 31.5615C44.1622 30.1795 44.1629 30.18 44.1637 30.1804L44.1654 30.1814L44.1689 30.1833L44.1764 30.1876C44.1815 30.1905 44.1871 30.1938 44.1933 30.1973C44.2053 30.2044 44.2193 30.2127 44.2347 30.2221C44.2654 30.2409 44.3028 30.2645 44.3457 30.2932C44.4311 30.3504 44.5392 30.4281 44.6622 30.5283C44.9072 30.7284 45.2158 31.0218 45.5188 31.4243C46.1376 32.2462 46.6947 33.4741 46.6947 35.1621C46.6947 36.8501 46.1376 38.078 45.5188 38.9C45.2158 39.3025 44.9072 39.5959 44.6622 39.796C44.5392 39.8962 44.4311 39.9739 44.3457 40.0311C44.3028 40.0598 44.2654 40.0834 44.2347 40.1022C44.2193 40.1116 44.2053 40.1199 44.1933 40.127C44.1871 40.1305 44.1815 40.1337 44.1764 40.1367L44.1689 40.141L44.1654 40.1429L44.1637 40.1439C44.1629 40.1443 44.1622 40.1448 43.3687 38.7627L44.1622 40.1448C43.3889 40.5773 42.4067 40.3092 41.9685 39.5459C41.5368 38.7941 41.7939 37.8422 42.5408 37.4005C42.5505 37.394 42.5758 37.3764 42.6116 37.347C42.6885 37.2844 42.8091 37.1728 42.9352 37.0052C43.1747 36.687 43.476 36.1146 43.476 35.1621C43.476 34.2097 43.1747 33.6373 42.9352 33.3191C42.8091 33.1515 42.6885 33.0398 42.6116 32.9773C42.5758 32.9479 42.5505 32.9303 42.5408 32.9238C41.7939 32.482 41.5368 31.5302 41.9685 30.7784Z" fill="#0D1D23"/>
<path fill-rule="evenodd" clip-rule="evenodd" d="M46.0507 25.6861C46.4941 24.9258 47.4779 24.664 48.2485 25.1016L47.4457 26.4784C48.2485 25.1016 48.2493 25.1021 48.25 25.1025L48.2519 25.1036L48.2556 25.1057L48.2644 25.1108C48.2708 25.1145 48.2781 25.1188 48.2865 25.1237C48.303 25.1336 48.3236 25.1459 48.3476 25.1609C48.3957 25.1907 48.4586 25.2309 48.5334 25.282C48.6837 25.3839 48.8839 25.5296 49.1173 25.7229C49.5836 26.1092 50.1861 26.6891 50.7831 27.4942C51.9891 29.1211 53.1321 31.6166 53.1321 35.1622C53.1321 38.7078 51.9891 41.2033 50.7831 42.8301C50.1861 43.6351 49.5836 44.2153 49.1173 44.6014C48.8839 44.7948 48.6837 44.9405 48.5334 45.0423C48.4586 45.0934 48.3957 45.1336 48.3476 45.1635C48.3236 45.1785 48.303 45.1908 48.2865 45.2008C48.2781 45.2056 48.2708 45.2099 48.2644 45.2137L48.2556 45.2186L48.2519 45.2209L48.25 45.2217C48.2493 45.2224 48.2485 45.2228 47.4457 43.8459L48.2485 45.2228C47.4779 45.6604 46.4941 45.3986 46.0507 44.6382C45.61 43.8823 45.8696 42.9178 46.6299 42.4768C46.631 42.476 46.6329 42.4749 46.6355 42.4732C46.6471 42.4662 46.6719 42.4503 46.7082 42.4256C46.7812 42.376 46.8994 42.2911 47.0483 42.1678C47.3464 41.9208 47.7631 41.5239 48.1854 40.9541C49.018 39.8311 49.9134 37.9847 49.9134 35.1622C49.9134 32.3397 49.018 30.4933 48.1854 29.3703C47.7631 28.8005 47.3464 28.4035 47.0483 28.1565C46.8994 28.0333 46.7812 27.9483 46.7082 27.8987C46.6719 27.874 46.6471 27.8582 46.6355 27.8511C46.6329 27.8495 46.631 27.8484 46.6299 27.8477C45.8696 27.4065 45.61 26.4422 46.0507 25.6861Z" fill="#0D1D23"/>
</g>
<defs>
<clipPath id="clip0_332_46">
<rect width="36.4789" height="29.8637" fill="white" transform="translate(16.7606 20.4166)"/>
</clipPath>
</defs>
</svg>
