<svg width="70" height="70" viewBox="0 0 70 70" fill="none" xmlns="http://www.w3.org/2000/svg">
<path fill-rule="evenodd" clip-rule="evenodd" d="M21.2715 28.8082H21.0522C18.682 28.8082 16.7606 30.7047 16.7606 33.0442V37.2802C16.7606 39.6197 18.682 41.5162 21.0522 41.5162H25.3217L34.4257 49.5742C35.8075 50.7974 38.0041 49.8292 38.0041 47.9974V45.3085L21.2715 28.8082ZM38.0041 41.1885V22.5388C38.0041 20.7069 35.8075 19.7389 34.4257 20.9619L25.561 28.8082H25.4494L38.0041 41.1885Z" fill="#0D1D23"/>
<path fill-rule="evenodd" clip-rule="evenodd" d="M46.0508 25.6861C46.4941 24.9258 47.4779 24.664 48.2485 25.1016L47.4458 26.4784C48.2485 25.1016 48.2494 25.1021 48.25 25.1025L48.2519 25.1036L48.2556 25.1057L48.2644 25.1108C48.2708 25.1145 48.2781 25.1188 48.2865 25.1237C48.303 25.1336 48.3236 25.1459 48.3476 25.1609C48.3957 25.1907 48.4586 25.2309 48.5335 25.282C48.6837 25.3839 48.8839 25.5296 49.1173 25.7229C49.5836 26.1092 50.1862 26.6891 50.7831 27.4942C51.9891 29.1211 53.1322 31.6166 53.1322 35.1622C53.1322 38.7078 51.9891 41.2033 50.7831 42.8301C50.1862 43.6351 49.5836 44.2153 49.1173 44.6014C48.8839 44.7948 48.6837 44.9405 48.5335 45.0423C48.4586 45.0934 48.3957 45.1336 48.3476 45.1635C48.3236 45.1785 48.303 45.1908 48.2865 45.2008C48.2781 45.2056 48.2708 45.2099 48.2644 45.2137L48.2556 45.2186L48.2519 45.2209L48.25 45.2217C48.2494 45.2224 48.2485 45.2228 47.4458 43.8459L48.2485 45.2228C47.4779 45.6604 46.4941 45.3986 46.0508 44.6382C45.61 43.8823 45.8697 42.9178 46.6299 42.4768C46.631 42.476 46.6329 42.4749 46.6355 42.4732C46.6471 42.4662 46.672 42.4503 46.7082 42.4256C46.7812 42.376 46.8994 42.2911 47.0484 42.1678C47.3464 41.9208 47.7631 41.5239 48.1854 40.9541C49.018 39.8311 49.9134 37.9847 49.9134 35.1622C49.9134 32.3397 49.018 30.4933 48.1854 29.3703C47.7631 28.8005 47.3464 28.4035 47.0484 28.1565C46.8994 28.0333 46.7812 27.9483 46.7082 27.8987C46.672 27.874 46.6471 27.8582 46.6355 27.8511C46.6329 27.8495 46.631 27.8484 46.6299 27.8477C45.8697 27.4065 45.61 26.4422 46.0508 25.6861Z" fill="#0D1D23"/>
<path fill-rule="evenodd" clip-rule="evenodd" d="M41.9685 30.7785C42.4067 30.0153 43.3889 29.7471 44.1622 30.1797L43.3687 31.5617C44.1622 30.1797 44.1629 30.1801 44.1637 30.1806L44.1654 30.1815L44.1689 30.1835L44.1764 30.1877C44.1815 30.1907 44.1871 30.1939 44.1933 30.1975C44.2053 30.2045 44.2193 30.2128 44.2347 30.2222C44.2654 30.241 44.3028 30.2647 44.3457 30.2933C44.4311 30.3505 44.5392 30.4282 44.6622 30.5285C44.9072 30.7285 45.2158 31.0219 45.5188 31.4244C46.1376 32.2464 46.6947 33.4743 46.6947 35.1623C46.6947 36.8503 46.1376 38.0782 45.5188 38.9001C45.2158 39.3026 44.9072 39.596 44.6622 39.7961C44.5392 39.8963 44.4311 39.974 44.3457 40.0313C44.3028 40.0599 44.2654 40.0835 44.2347 40.1023C44.2193 40.1118 44.2053 40.12 44.1933 40.1271C44.1871 40.1306 44.1815 40.1339 44.1764 40.1368L44.1689 40.1411L44.1654 40.143L44.1637 40.144C44.1629 40.1444 44.1622 40.1449 43.3687 38.7629L44.1622 40.1449C43.3889 40.5774 42.4067 40.3093 41.9685 39.546C41.5368 38.7942 41.7939 37.8423 42.5408 37.4006C42.5505 37.3941 42.5758 37.3765 42.6116 37.3471C42.6885 37.2846 42.8091 37.1729 42.9352 37.0053C43.1747 36.6871 43.476 36.1147 43.476 35.1623C43.476 34.2098 43.1747 33.6375 42.9352 33.3192C42.8091 33.1516 42.6885 33.04 42.6116 32.9774C42.5758 32.9481 42.5505 32.9305 42.5408 32.9239C41.7939 32.4822 41.5368 31.5304 41.9685 30.7785Z" fill="#0D1D23"/>
<rect width="3.91637" height="53.8501" rx="1.95819" transform="matrix(0.712034 -0.702145 0.712034 0.702145 13.8028 17.3331)" fill="#0D1D23"/>
</svg>
